<?xml version="1.0" encoding="UTF-8" standalone="no"?>
<!DOCTYPE svg PUBLIC "-//W3C//DTD SVG 1.1//EN" "http://www.w3.org/Graphics/SVG/1.1/DTD/svg11.dtd">
<svg xmlns="http://www.w3.org/2000/svg" version="1.1" viewBox="0.00 0.00 1916.00 821.00" width="1916.00" height="821.00">
<path fill="#16cbbc" d="
  M 244.42 138.79
  L 263.10 138.79
  A 0.91 0.90 0.0 0 0 264.01 137.89
  L 264.01 118.71
  A 0.91 0.91 0.0 0 1 264.92 117.80
  L 303.71 117.80
  A 0.66 0.65 90.0 0 0 304.36 117.14
  L 304.36 95.53
  A 0.51 0.51 0.0 0 1 304.87 95.02
  L 354.89 95.02
  A 0.65 0.64 90.0 0 0 355.53 94.37
  L 355.53 71.85
  A 0.76 0.76 0.0 0 1 356.29 71.09
  L 577.30 71.09
  A 0.54 0.54 0.0 0 1 577.84 71.63
  L 577.84 92.82
  A 0.70 0.70 0.0 0 0 578.54 93.52
  L 624.60 93.73
  A 0.81 0.80 90.0 0 1 625.40 94.54
  L 625.40 116.33
  A 1.00 1.00 0.0 0 0 626.40 117.33
  L 664.04 117.51
  A 0.57 0.56 -0.0 0 1 664.61 118.07
  L 664.61 137.91
  A 0.88 0.88 0.0 0 0 665.49 138.79
  L 683.79 138.79
  A 0.61 0.61 0.0 0 1 684.40 139.40
  L 684.40 158.60
  A 0.98 0.98 0.0 0 0 685.38 159.58
  L 702.58 159.58
  A 0.34 0.34 0.0 0 1 702.92 159.92
  L 702.92 180.12
  A 0.60 0.60 0.0 0 0 703.52 180.72
  L 723.07 180.72
  A 0.41 0.41 0.0 0 1 723.48 181.13
  L 723.48 201.91
  A 0.82 0.82 0.0 0 0 724.29 202.73
  L 744.33 202.82
  A 0.55 0.55 0.0 0 1 744.88 203.37
  L 744.88 245.64
  A 0.61 0.61 0.0 0 0 745.49 246.25
  L 765.61 246.34
  A 0.48 0.47 90.0 0 1 766.08 246.82
  L 766.08 316.16
  A 0.68 0.67 -0.0 0 0 766.76 316.83
  L 808.87 316.83
  A 0.70 0.69 90.0 0 1 809.56 317.53
  L 809.56 337.48
  A 0.58 0.58 0.0 0 0 810.13 338.06
  L 829.35 338.14
  A 0.59 0.59 0.0 0 1 829.93 338.73
  L 829.93 362.16
  A 0.54 0.54 0.0 0 0 830.47 362.70
  L 849.87 362.79
  A 0.55 0.55 0.0 0 1 850.42 363.34
  L 850.42 512.87
  A 0.67 0.66 -0.0 0 1 849.75 513.53
  L 830.40 513.53
  A 0.55 0.55 0.0 0 0 829.85 514.07
  L 829.77 533.36
  A 0.60 0.59 -89.5 0 1 829.18 533.95
  L 810.50 533.95
  A 0.59 0.59 0.0 0 0 809.91 534.54
  L 809.91 552.95
  A 0.43 0.43 0.0 0 1 809.48 553.38
  L 766.61 553.38
  A 0.66 0.66 0.0 0 0 765.95 554.04
  L 765.95 593.33
  A 0.79 0.78 90.0 0 1 765.17 594.12
  L 745.49 594.12
  A 0.56 0.56 0.0 0 0 744.93 594.68
  L 744.93 615.37
  A 0.70 0.70 0.0 0 1 744.23 616.07
  L 724.60 616.07
  A 0.59 0.59 0.0 0 0 724.01 616.66
  L 724.01 637.88
  A 0.93 0.93 0.0 0 1 723.08 638.81
  L 702.61 638.71
  A 0.54 0.54 0.0 0 0 702.07 639.25
  L 702.07 660.63
  A 0.66 0.66 0.0 0 1 701.41 661.29
  L 658.44 661.29
  A 0.49 0.49 0.0 0 0 657.95 661.78
  L 657.95 685.03
  A 0.62 0.62 0.0 0 1 657.33 685.65
  L 277.10 685.65
  A 0.37 0.36 -90.0 0 1 276.74 685.28
  L 276.74 661.78
  A 0.52 0.52 0.0 0 0 276.22 661.26
  L 226.95 661.03
  A 0.38 0.37 0.0 0 1 226.57 660.66
  L 226.57 639.08
  A 0.38 0.38 0.0 0 0 226.19 638.70
  L 205.96 638.70
  A 0.59 0.59 0.0 0 1 205.37 638.11
  L 205.37 616.58
  A 0.42 0.41 0.0 0 0 204.95 616.17
  L 185.56 616.17
  A 0.43 0.43 0.0 0 1 185.13 615.74
  L 185.13 594.64
  A 0.55 0.55 0.0 0 0 184.58 594.09
  L 164.93 594.09
  A 0.35 0.35 0.0 0 1 164.58 593.74
  L 164.58 554.33
  A 0.85 0.85 0.0 0 0 163.74 553.48
  L 122.44 553.29
  A 0.63 0.63 0.0 0 1 121.81 552.66
  L 121.81 534.34
  A 0.71 0.70 0.0 0 0 121.10 533.64
  L 101.86 533.55
  A 0.54 0.54 0.0 0 1 101.32 533.01
  L 101.32 512.98
  A 0.67 0.66 -90.0 0 0 100.66 512.31
  L 80.56 512.31
  A 0.55 0.55 0.0 0 1 80.01 511.75
  Q 80.07 471.76 80.02 432.09
  C 80.01 422.08 80.38 414.10 80.68 403.47
  C 81.08 389.58 80.60 374.65 80.69 363.23
  A 0.57 0.56 -89.5 0 1 81.25 362.67
  L 101.07 362.67
  A 0.75 0.74 0.0 0 0 101.82 361.93
  L 101.82 338.31
  A 0.53 0.53 0.0 0 1 102.35 337.78
  L 121.41 337.78
  A 0.68 0.67 -90.0 0 0 122.08 337.10
  L 122.08 317.31
  A 0.55 0.54 0.0 0 1 122.63 316.77
  L 165.74 316.97
  A 0.54 0.54 0.0 0 0 166.28 316.43
  L 166.28 246.71
  A 0.41 0.41 0.0 0 1 166.69 246.30
  L 186.70 246.30
  A 0.59 0.58 90.0 0 0 187.28 245.71
  L 187.28 203.33
  A 0.53 0.53 0.0 0 1 187.81 202.80
  L 205.26 202.80
  A 0.78 0.77 -0.0 0 0 206.04 202.03
  L 206.13 181.38
  A 0.66 0.66 0.0 0 1 206.79 180.73
  L 224.15 180.73
  A 0.56 0.55 0.0 0 0 224.71 180.18
  L 224.71 160.25
  A 0.60 0.59 -90.0 0 1 225.30 159.65
  L 242.99 159.65
  A 0.80 0.79 90.0 0 0 243.78 158.85
  L 243.87 139.34
  A 0.56 0.55 -89.5 0 1 244.42 138.79
  Z
  M 331.78 160.21
  A 0.34 0.34 0.0 0 0 331.44 159.87
  L 305.06 159.87
  A 0.34 0.34 0.0 0 0 304.72 160.21
  L 304.72 180.43
  A 0.34 0.34 0.0 0 0 305.06 180.77
  L 331.44 180.77
  A 0.34 0.34 0.0 0 0 331.78 180.43
  L 331.78 160.21
  Z
  M 304.3425 181.8918
  A 0.89 0.89 0.0 0 0 303.4510 181.0034
  L 284.4110 181.0366
  A 0.89 0.89 0.0 0 0 283.5226 181.9282
  L 283.5575 201.9282
  A 0.89 0.89 0.0 0 0 284.4490 202.8166
  L 303.4890 202.7834
  A 0.89 0.89 0.0 0 0 304.3774 201.8918
  L 304.3425 181.8918
  Z
  M 283.51 203.66
  A 0.79 0.79 0.0 0 0 282.72 202.87
  L 263.74 202.87
  A 0.79 0.79 0.0 0 0 262.95 203.66
  L 262.95 223.24
  A 0.79 0.79 0.0 0 0 263.74 224.03
  L 282.72 224.03
  A 0.79 0.79 0.0 0 0 283.51 223.24
  L 283.51 203.66
  Z
  M 262.8826 224.7024
  A 0.54 0.54 0.0 0 0 262.3416 224.1633
  L 243.2217 224.1967
  A 0.54 0.54 0.0 0 0 242.6826 224.7376
  L 242.7174 244.6976
  A 0.54 0.54 0.0 0 0 243.2584 245.2367
  L 262.3783 245.2033
  A 0.54 0.54 0.0 0 0 262.9174 244.6624
  L 262.8826 224.7024
  Z
  M 636.44 613.78
  L 660.89 613.78
  A 0.49 0.49 0.0 0 0 661.38 613.29
  L 661.38 593.16
  A 0.37 0.37 0.0 0 1 661.75 592.79
  L 685.02 592.79
  A 0.80 0.80 0.0 0 0 685.82 591.99
  L 685.82 567.39
  A 0.51 0.51 0.0 0 1 686.33 566.88
  L 706.46 566.88
  A 0.56 0.55 -90.0 0 0 707.01 566.32
  Q 706.99 498.79 706.95 448.50
  C 706.94 446.18 707.23 443.43 707.22 441.16
  Q 707.01 403.39 707.55 370.13
  C 707.64 365.04 708.16 360.08 707.85 354.16
  A 0.67 0.67 0.0 0 0 707.18 353.52
  L 687.57 353.52
  A 0.31 0.30 90.0 0 1 687.27 353.21
  L 687.27 331.82
  A 0.46 0.45 90.0 0 0 686.82 331.36
  L 667.58 331.36
  A 0.46 0.46 0.0 0 1 667.12 330.90
  L 667.12 310.16
  A 0.42 0.41 0.0 0 0 666.70 309.75
  L 566.12 309.75
  A 0.57 0.57 0.0 0 0 565.55 310.32
  L 565.55 331.09
  A 0.66 0.65 -0.0 0 1 564.89 331.74
  L 536.18 331.74
  A 0.71 0.71 0.0 0 0 535.47 332.45
  L 535.47 352.92
  A 0.67 0.67 0.0 0 1 534.80 353.59
  L 397.35 353.59
  A 0.53 0.53 0.0 0 1 396.82 353.06
  L 396.82 332.22
  A 0.46 0.46 0.0 0 0 396.36 331.76
  L 368.51 331.76
  A 0.50 0.50 0.0 0 1 368.01 331.26
  L 368.01 310.29
  A 0.54 0.54 0.0 0 0 367.47 309.75
  L 264.09 309.75
  A 0.38 0.38 0.0 0 0 263.71 310.13
  L 263.71 330.89
  A 0.59 0.59 0.0 0 1 263.12 331.48
  L 244.36 331.48
  A 0.62 0.61 -0.0 0 0 243.74 332.09
  L 243.74 352.92
  A 0.47 0.46 -0.0 0 1 243.27 353.38
  L 224.10 353.38
  A 0.61 0.60 90.0 0 0 223.50 353.99
  L 223.50 564.59
  A 1.02 1.02 0.0 0 0 224.52 565.61
  L 242.83 565.61
  A 0.72 0.72 0.0 0 1 243.55 566.33
  L 243.55 590.83
  A 0.89 0.89 0.0 0 0 244.44 591.72
  L 265.22 591.72
  A 0.52 0.52 0.0 0 1 265.74 592.24
  L 265.74 612.53
  A 0.67 0.66 -0.0 0 0 266.41 613.19
  L 286.98 613.19
  A 0.73 0.73 0.0 0 1 287.71 613.92
  L 287.71 635.35
  A 0.51 0.51 0.0 0 0 288.22 635.86
  L 635.17 635.86
  A 0.60 0.60 0.0 0 0 635.77 635.26
  L 635.77 614.46
  A 0.68 0.67 -90.0 0 1 636.44 613.78
  Z
  M 165.38 524.84
  A 0.38 0.38 0.0 0 0 165.76 524.46
  L 165.76 357.30
  A 0.38 0.38 0.0 0 0 165.38 356.92
  L 128.49 356.92
  A 0.38 0.38 0.0 0 0 128.11 357.30
  L 128.01 376.51
  A 0.38 0.38 0.0 0 1 127.63 376.89
  L 108.95 376.80
  A 0.38 0.38 0.0 0 0 108.57 377.18
  L 107.98 506.36
  A 0.38 0.38 0.0 0 0 108.36 506.74
  L 127.22 506.83
  A 0.38 0.38 0.0 0 1 127.60 507.21
  L 127.60 524.46
  A 0.38 0.38 0.0 0 0 127.98 524.84
  L 165.38 524.84
  Z
  M 802.68 524.74
  A 0.62 0.62 0.0 0 0 803.30 524.12
  L 803.30 507.60
  A 0.62 0.62 0.0 0 1 803.92 506.98
  L 820.88 506.98
  A 0.62 0.62 0.0 0 0 821.50 506.36
  L 821.50 377.78
  A 0.62 0.62 0.0 0 0 820.88 377.16
  L 803.84 377.16
  A 0.62 0.62 0.0 0 1 803.22 376.54
  L 803.22 358.09
  A 0.62 0.62 0.0 0 0 802.60 357.47
  L 766.82 357.47
  A 0.62 0.62 0.0 0 0 766.20 358.09
  L 766.20 524.12
  A 0.62 0.62 0.0 0 0 766.82 524.74
  L 802.68 524.74
  Z"
/>
<path fill="#16cbbc" d="
  M 1252.22 179.25
  L 1252.86 192.15
  A 0.80 0.70 -35.9 0 1 1252.77 192.54
  Q 1251.42 195.08 1252.01 198.72
  A 0.65 0.65 0.0 0 1 1251.37 199.47
  L 1208.87 199.47
  A 0.91 0.90 0.0 0 0 1207.96 200.37
  L 1207.67 263.31
  A 0.76 0.75 90.0 0 0 1208.42 264.07
  L 1250.78 264.07
  A 0.67 0.67 0.0 0 1 1251.45 264.74
  L 1251.35 284.69
  A 0.66 0.66 0.0 0 1 1250.69 285.35
  L 1203.05 285.35
  A 0.46 0.46 0.0 0 1 1202.59 284.89
  L 1202.67 268.24
  A 0.40 0.39 -0.0 0 0 1202.27 267.85
  L 1186.24 267.85
  A 0.64 0.64 0.0 0 1 1185.60 267.21
  L 1185.60 200.09
  A 0.55 0.55 0.0 0 0 1185.05 199.54
  L 1161.29 199.54
  A 0.47 0.47 0.0 0 1 1160.82 199.07
  L 1160.82 178.82
  A 0.40 0.40 0.0 0 1 1161.22 178.42
  L 1184.68 178.42
  A 0.66 0.66 0.0 0 0 1185.34 177.76
  L 1185.34 133.25
  A 0.53 0.52 0.0 0 1 1185.87 132.73
  L 1207.68 132.73
  A 0.60 0.60 0.0 0 1 1208.28 133.32
  Q 1208.44 147.35 1208.40 159.25
  Q 1208.39 163.12 1208.09 165.27
  C 1207.47 169.74 1207.71 172.27 1207.73 177.74
  A 0.69 0.69 0.0 0 0 1208.41 178.42
  L 1251.55 178.61
  A 0.68 0.67 -0.9 0 1 1252.22 179.25
  Z"
/>
<path fill="#16cbbc" d="
  M 1063.67 265.97
  A 0.62 0.62 0.0 0 1 1063.05 266.59
  L 1045.55 266.59
  A 0.45 0.45 0.0 0 0 1045.10 267.04
  L 1045.10 284.70
  A 0.91 0.91 0.0 0 1 1044.19 285.61
  L 963.13 285.61
  A 0.45 0.44 90.0 0 1 962.69 285.16
  L 962.92 272.15
  A 0.94 0.76 -62.3 0 0 962.85 271.80
  Q 961.81 269.52 962.17 266.16
  A 0.49 0.48 -86.8 0 0 961.69 265.62
  L 940.67 265.52
  A 0.43 0.43 0.0 0 1 940.24 265.09
  Q 939.77 209.07 940.68 157.02
  A 0.58 0.58 0.0 0 1 941.26 156.45
  L 957.33 156.45
  A 0.71 0.70 0.0 0 0 958.04 155.75
  L 958.04 137.70
  A 0.54 0.54 0.0 0 1 958.58 137.16
  L 1049.05 137.57
  A 0.60 0.60 0.0 0 1 1049.64 138.17
  L 1049.56 155.16
  A 0.93 0.93 0.0 0 0 1050.49 156.09
  L 1063.32 156.15
  A 1.16 1.16 0.0 0 1 1064.47 157.31
  L 1064.47 178.71
  A 0.50 0.50 0.0 0 1 1063.97 179.21
  L 1043.57 179.21
  A 0.52 0.52 0.0 0 1 1043.05 178.68
  L 1043.54 159.84
  A 0.83 0.83 0.0 0 0 1042.63 159.00
  Q 1040.52 159.21 1038.81 158.80
  A 0.29 0.24 50.7 0 0 1038.71 158.78
  L 963.74 158.94
  A 0.52 0.51 1.1 0 0 963.22 159.43
  Q 962.51 172.80 962.71 180.97
  Q 963.04 194.30 962.94 202.53
  Q 962.63 228.55 963.19 257.97
  A 5.49 5.45 -54.2 0 0 963.41 259.36
  Q 963.92 261.10 963.88 263.26
  A 0.67 0.66 -89.6 0 0 964.54 263.94
  L 1039.98 263.94
  A 0.82 0.82 0.0 0 0 1040.80 263.16
  Q 1040.99 258.95 1040.67 255.86
  C 1039.83 247.66 1040.18 239.66 1040.20 230.74
  A 1.13 1.13 0.0 0 0 1039.07 229.61
  L 1000.67 229.61
  A 0.51 0.51 0.0 0 1 1000.16 229.10
  L 1000.16 209.04
  A 0.72 0.72 0.0 0 1 1000.88 208.32
  L 1063.07 208.32
  A 0.86 0.86 0.0 0 1 1063.93 209.18
  L 1063.67 265.97
  Z"
/>
<path fill="#16cbbc" d="
  M 1128.96 143.65
  A 0.47 0.47 0.0 0 1 1129.43 144.12
  L 1129.45 148.51
  A 16.10 1.13 89.8 0 1 1128.38 164.61
  L 1108.08 164.69
  A 16.10 1.13 89.8 0 1 1106.89 148.59
  L 1106.88 144.20
  A 0.47 0.47 0.0 0 1 1107.34 143.73
  L 1128.96 143.65
  Z"
/>
<path fill="#16cbbc" d="
  M 1128.67 285.61
  L 1106.94 285.51
  A 0.73 0.73 0.0 0 1 1106.21 284.83
  Q 1105.82 280.12 1107.15 276.14
  A 1.59 1.54 53.7 0 0 1107.21 275.71
  L 1106.85 184.85
  A 0.46 0.46 0.0 0 1 1107.32 184.39
  L 1129.01 184.48
  A 0.56 0.56 0.0 0 1 1129.56 185.04
  L 1129.10 285.18
  A 0.43 0.43 0.0 0 1 1128.67 285.61
  Z"
/>
<path fill="#16cbbc" d="
  M 1122.16 324.97
  L 1146.27 324.97
  A 0.60 0.60 0.0 0 1 1146.87 325.58
  Q 1146.69 338.96 1146.75 349.83
  C 1146.76 352.81 1146.20 356.12 1146.19 359.50
  Q 1146.13 370.20 1146.36 378.24
  C 1146.61 386.55 1145.86 393.34 1146.01 401.59
  Q 1146.47 425.78 1146.05 447.96
  C 1145.90 455.77 1146.30 463.78 1146.18 472.18
  A 0.57 0.57 0.0 0 1 1145.61 472.74
  L 1063.22 472.74
  A 0.62 0.62 0.0 0 1 1062.60 472.12
  L 1062.60 456.31
  A 0.88 0.88 0.0 0 0 1061.72 455.43
  L 1045.06 455.43
  A 0.88 0.88 0.0 0 1 1044.18 454.54
  C 1044.31 441.52 1043.76 431.23 1043.88 416.18
  C 1043.92 411.06 1044.82 405.12 1044.34 400.46
  Q 1043.62 393.39 1043.83 386.98
  A 0.51 0.51 0.0 0 1 1044.34 386.49
  L 1061.06 386.49
  A 0.72 0.72 0.0 0 0 1061.78 385.77
  L 1061.78 367.54
  A 0.57 0.57 0.0 0 1 1062.35 366.97
  L 1121.72 366.97
  A 0.09 0.09 0.0 0 0 1121.81 366.88
  L 1121.81 325.32
  A 0.35 0.35 0.0 0 1 1122.16 324.97
  Z
  M 1121.8869 389.6073
  A 0.51 0.51 0.0 0 0 1121.3786 389.0956
  L 1066.7390 388.9048
  A 0.51 0.51 0.0 0 0 1066.2272 389.4130
  L 1066.0131 450.7327
  A 0.51 0.51 0.0 0 0 1066.5214 451.2444
  L 1121.1610 451.4352
  A 0.51 0.51 0.0 0 0 1121.6728 450.9270
  L 1121.8869 389.6073
  Z"
/>
<path fill="#16cbbc" d="
  M 1421.95 366.43
  L 1444.32 366.43
  A 0.65 0.65 0.0 0 0 1444.97 365.78
  L 1444.97 325.52
  A 0.64 0.64 0.0 0 1 1445.61 324.88
  L 1466.36 324.97
  A 0.84 0.84 0.0 0 1 1467.19 325.81
  L 1467.01 366.06
  A 0.39 0.39 0.0 0 0 1467.40 366.46
  L 1511.14 366.66
  A 0.43 0.43 0.0 0 1 1511.57 367.09
  L 1511.57 386.80
  A 0.99 0.99 0.0 0 1 1510.58 387.79
  L 1467.86 387.59
  A 0.63 0.63 0.0 0 0 1467.23 388.22
  L 1466.94 450.88
  A 0.98 0.97 0.0 0 0 1467.92 451.85
  L 1511.18 451.85
  A 0.54 0.54 0.0 0 1 1511.72 452.42
  Q 1511.53 456.55 1512.39 460.69
  A 1.71 1.36 -57.0 0 1 1512.42 461.00
  L 1512.30 471.98
  A 0.51 0.50 -89.4 0 1 1511.80 472.48
  L 1463.94 472.26
  A 0.55 0.55 0.0 0 1 1463.40 471.71
  L 1463.40 455.43
  A 0.54 0.54 0.0 0 0 1462.87 454.89
  L 1445.39 454.81
  A 0.81 0.80 0.0 0 1 1444.58 454.01
  L 1444.58 388.48
  A 0.82 0.82 0.0 0 0 1443.76 387.66
  L 1421.93 387.66
  A 0.57 0.56 90.0 0 1 1421.37 387.09
  L 1421.37 367.01
  A 0.58 0.58 0.0 0 1 1421.95 366.43
  Z"
/>
<path fill="#16cbbc" d="
  M 1632.84 456.11
  A 0.69 0.69 0.0 0 0 1632.15 455.42
  L 1617.05 455.42
  A 0.58 0.57 -0.0 0 1 1616.47 454.85
  L 1616.47 389.28
  A 0.78 0.77 -90.0 0 0 1615.70 388.50
  L 1593.65 388.50
  A 0.75 0.75 0.0 0 1 1592.90 387.75
  L 1592.90 367.53
  A 0.62 0.62 0.0 0 1 1593.52 366.91
  L 1616.57 366.91
  A 0.63 0.63 0.0 0 0 1617.20 366.28
  L 1617.20 325.62
  A 0.67 0.67 0.0 0 1 1617.87 324.95
  L 1639.36 324.95
  A 1.03 1.03 0.0 0 1 1640.39 326.01
  L 1639.36 365.69
  A 0.99 0.99 0.0 0 0 1640.35 366.71
  L 1682.77 366.71
  A 0.79 0.79 0.0 0 1 1683.56 367.50
  L 1683.56 387.76
  A 0.57 0.56 -90.0 0 1 1683.00 388.33
  L 1640.32 388.33
  A 0.71 0.70 1.3 0 0 1639.61 389.00
  Q 1639.16 397.35 1638.84 407.68
  C 1638.59 415.40 1638.85 420.53 1638.85 428.97
  Q 1638.84 433.70 1638.32 440.01
  Q 1637.91 445.07 1638.31 451.06
  A 0.85 0.85 0.0 0 0 1639.16 451.86
  L 1682.20 451.86
  A 0.83 0.83 0.0 0 1 1683.03 452.69
  L 1683.03 472.41
  A 0.44 0.44 0.0 0 1 1682.59 472.85
  L 1633.50 472.85
  A 0.67 0.66 90.0 0 1 1632.84 472.18
  L 1632.84 456.11
  Z"
/>
<path fill="#16cbbc" d="
  M 942.87 325.44
  L 1016.50 325.44
  A 0.43 0.43 0.0 0 1 1016.93 325.87
  L 1016.93 345.74
  A 0.91 0.91 0.0 0 1 1016.02 346.65
  L 990.35 346.65
  A 0.47 0.46 -90.0 0 0 989.89 347.12
  L 989.89 450.62
  A 0.65 0.65 0.0 0 0 990.53 451.27
  L 1015.80 451.93
  A 1.08 1.08 0.0 0 1 1016.85 453.01
  L 1016.85 472.08
  A 0.75 0.75 0.0 0 1 1016.10 472.83
  L 942.38 472.83
  A 0.60 0.60 0.0 0 1 941.78 472.23
  L 941.78 452.38
  A 0.71 0.70 90.0 0 1 942.48 451.67
  L 966.51 451.67
  A 0.84 0.84 0.0 0 0 967.34 450.93
  Q 967.87 446.01 967.87 445.01
  Q 967.78 410.18 967.90 346.94
  A 0.33 0.33 0.0 0 0 967.57 346.61
  L 943.18 346.61
  A 1.03 1.03 0.0 0 1 942.15 345.58
  L 942.15 326.16
  A 0.72 0.72 0.0 0 1 942.87 325.44
  Z"
/>
<rect fill="#16cbbc" x="-10.88" y="-10.63" transform="translate(1552.10,335.99) rotate(-0.3)" width="21.76" height="21.26" rx="0.69"/>
<path fill="#16cbbc" d="
  M 1300.18 471.82
  Q 1299.95 463.88 1300.13 452.38
  Q 1300.16 450.66 1300.60 449.33
  A 1.09 0.87 60.3 0 0 1300.65 449.01
  L 1300.60 366.82
  A 0.68 0.68 0.0 0 1 1301.28 366.14
  L 1318.59 366.14
  A 0.88 0.77 48.9 0 1 1318.81 366.17
  Q 1321.41 366.78 1322.01 366.78
  Q 1340.75 366.63 1355.91 366.59
  C 1357.81 366.58 1359.89 367.08 1361.25 367.03
  Q 1369.24 366.72 1384.21 367.29
  A 0.29 0.29 0.0 0 1 1384.49 367.58
  L 1384.49 383.90
  A 0.67 0.66 -90.0 0 0 1385.15 384.57
  L 1399.41 384.57
  A 0.53 0.52 -1.1 0 1 1399.94 385.07
  Q 1400.41 395.72 1400.23 403.06
  Q 1399.88 418.15 1399.89 420.95
  Q 1400.03 446.73 1399.92 472.12
  A 0.43 0.42 -89.3 0 1 1399.50 472.54
  L 1379.18 472.54
  A 0.68 0.68 0.0 0 1 1378.50 471.86
  L 1378.50 388.86
  A 0.83 0.83 0.0 0 0 1377.70 388.03
  C 1374.80 387.92 1372.24 387.51 1369.07 387.56
  Q 1330.60 388.11 1329.50 388.11
  Q 1325.34 388.13 1322.91 387.85
  A 0.75 0.75 0.0 0 0 1322.07 388.59
  L 1322.07 471.25
  A 0.96 0.96 0.0 0 1 1320.98 472.20
  Q 1314.87 471.32 1309.56 472.13
  C 1306.27 472.63 1303.40 472.51 1300.85 472.48
  A 0.68 0.68 0.0 0 1 1300.18 471.82
  Z"
/>
<rect fill="#16cbbc" x="-10.54" y="-52.92" transform="translate(1551.72,419.25) rotate(0.2)" width="21.08" height="105.84" rx="0.27"/>
<path fill="#16cbbc" d="
  M 1173.69 455.42
  A 0.22 0.22 0.0 0 1 1173.47 455.20
  L 1173.47 385.72
  A 0.80 0.80 0.0 0 1 1174.27 384.92
  L 1189.71 384.92
  A 0.76 0.76 0.0 0 0 1190.47 384.16
  L 1190.47 367.41
  A 0.77 0.77 0.0 0 1 1191.23 366.64
  Q 1219.96 366.40 1238.25 366.78
  Q 1239.36 366.81 1240.55 366.84
  Q 1249.34 367.07 1255.71 367.33
  A 0.63 0.62 -89.1 0 1 1256.31 367.96
  L 1256.31 384.43
  A 0.42 0.42 0.0 0 0 1256.73 384.85
  L 1270.52 384.85
  A 0.58 0.58 0.0 0 1 1271.10 385.43
  L 1270.90 429.45
  A 1.01 1.01 0.0 0 1 1269.89 430.45
  L 1196.10 430.45
  A 0.67 0.66 -0.0 0 0 1195.43 431.11
  L 1195.34 450.40
  A 0.82 0.82 0.0 0 0 1196.16 451.22
  L 1259.33 451.22
  A 0.82 0.82 0.0 0 1 1260.15 452.04
  L 1260.15 472.39
  A 0.45 0.45 0.0 0 1 1259.70 472.84
  L 1190.79 472.84
  A 0.37 0.36 -0.0 0 1 1190.42 472.48
  L 1190.42 455.83
  A 0.41 0.41 0.0 0 0 1190.01 455.42
  L 1173.69 455.42
  Z
  M 1247.98 387.81
  L 1197.12 387.81
  A 1.70 1.70 0.0 0 0 1195.42 389.51
  L 1195.42 407.36
  A 1.13 0.28 -90.0 0 0 1195.70 408.49
  L 1249.40 408.49
  A 1.13 0.28 90.0 0 0 1249.68 407.36
  L 1249.68 389.51
  A 1.70 1.70 0.0 0 0 1247.98 387.81
  Z"
/>
<path fill="#16cbbc" d="
  M 1726.74 472.32
  L 1726.82 455.86
  A 0.46 0.46 0.0 0 0 1726.36 455.40
  L 1709.92 455.40
  A 0.60 0.59 -0.0 0 1 1709.32 454.81
  L 1709.32 367.61
  A 0.54 0.53 -0.6 0 1 1709.85 367.08
  L 1731.28 367.01
  A 0.62 0.61 1.3 0 1 1731.90 367.65
  Q 1731.89 367.84 1731.78 383.26
  Q 1731.76 386.18 1731.49 392.24
  C 1731.30 396.68 1731.82 401.61 1731.39 406.25
  Q 1731.10 409.48 1731.10 411.25
  Q 1731.16 437.36 1731.05 451.19
  A 0.56 0.56 0.0 0 0 1731.61 451.75
  L 1785.62 451.75
  A 0.60 0.60 0.0 0 0 1786.22 451.17
  Q 1787.74 408.72 1786.80 367.79
  A 0.74 0.73 -0.8 0 1 1787.54 367.04
  L 1807.90 367.04
  A 0.73 0.73 0.0 0 1 1808.63 367.77
  Q 1808.42 423.69 1808.43 426.80
  Q 1808.62 466.20 1808.30 474.07
  Q 1808.12 478.53 1807.80 494.00
  A 0.67 0.67 0.0 0 1 1807.13 494.66
  L 1788.78 494.66
  A 0.83 0.83 0.0 0 0 1787.95 495.49
  L 1787.95 513.66
  A 0.94 0.94 0.0 0 1 1787.01 514.60
  L 1729.23 514.60
  A 0.70 0.70 0.0 0 1 1728.53 513.90
  L 1728.53 494.17
  A 0.69 0.69 0.0 0 1 1729.22 493.48
  L 1784.27 493.48
  A 0.55 0.55 0.0 0 0 1784.82 492.93
  L 1784.82 473.41
  A 0.54 0.54 0.0 0 0 1784.28 472.87
  L 1727.29 472.87
  A 0.55 0.55 0.0 0 1 1726.74 472.32
  Z"
/>
<path fill="#16cbbc" d="
  M 328.20 507.58
  L 328.20 494.34
  A 0.55 0.55 0.0 0 0 327.65 493.79
  L 313.42 493.79
  A 0.62 0.61 -0.0 0 1 312.80 493.18
  L 312.80 421.75
  A 0.58 0.57 0.0 0 1 313.38 421.18
  L 327.86 421.25
  A 0.52 0.52 0.0 0 0 328.38 420.73
  L 328.38 405.32
  A 0.49 0.48 -90.0 0 1 328.86 404.83
  L 355.24 404.83
  A 0.82 0.81 -90.0 0 1 356.05 405.65
  L 356.05 420.40
  A 0.70 0.69 0.4 0 0 356.74 421.09
  L 372.25 421.16
  A 0.78 0.77 90.0 0 1 373.02 421.94
  L 372.81 466.75
  A 1.46 1.36 58.3 0 1 372.70 467.30
  Q 372.31 468.22 372.28 469.50
  Q 372.16 474.23 372.28 493.45
  A 0.51 0.51 0.0 0 1 371.77 493.96
  L 356.78 493.89
  A 0.45 0.45 0.0 0 0 356.33 494.34
  L 356.33 507.61
  A 0.61 0.60 0.0 0 1 355.72 508.21
  L 328.83 508.21
  A 0.63 0.63 0.0 0 1 328.20 507.58
  Z
  M 339.0135 447.0833
  A 0.46 0.46 0.0 0 0 338.5527 446.6241
  L 320.2928 446.6559
  A 0.46 0.46 0.0 0 0 319.8336 447.1168
  L 319.8665 465.9767
  A 0.46 0.46 0.0 0 0 320.3273 466.4359
  L 338.5872 466.4041
  A 0.46 0.46 0.0 0 0 339.0464 465.9432
  L 339.0135 447.0833
  Z"
/>
<path fill="#16cbbc" d="
  M 611.11 421.16
  L 625.92 421.16
  A 0.63 0.63 0.0 0 1 626.55 421.79
  L 626.55 491.81
  A 0.63 0.63 0.0 0 1 625.92 492.44
  L 611.33 492.44
  A 0.63 0.63 0.0 0 0 610.70 493.07
  L 610.70 505.29
  A 0.63 0.63 0.0 0 1 610.07 505.92
  L 584.83 505.92
  A 0.63 0.63 0.0 0 1 584.20 505.29
  L 584.20 493.09
  A 0.63 0.63 0.0 0 0 583.57 492.46
  L 569.89 492.46
  A 0.63 0.63 0.0 0 1 569.26 491.83
  L 569.26 422.09
  A 0.63 0.63 0.0 0 1 569.89 421.46
  L 583.55 421.46
  A 0.63 0.63 0.0 0 0 584.18 420.83
  L 584.18 406.03
  A 0.63 0.63 0.0 0 1 584.81 405.40
  L 609.85 405.40
  A 0.63 0.63 0.0 0 1 610.48 406.03
  L 610.48 420.53
  A 0.63 0.63 0.0 0 0 611.11 421.16
  Z
  M 595.1433 446.9232
  A 0.41 0.41 0.0 0 0 594.7326 446.5139
  L 576.2926 446.5461
  A 0.41 0.41 0.0 0 0 575.8833 446.9568
  L 575.9167 466.0568
  A 0.41 0.41 0.0 0 0 576.3274 466.4661
  L 594.7674 466.4339
  A 0.41 0.41 0.0 0 0 595.1767 466.0232
  L 595.1433 446.9232
  Z"
/>
<path fill="#16cbbc" d="
  M 960.50 657.64
  L 939.81 657.64
  A 0.64 0.64 0.0 0 1 939.17 657.00
  Q 939.31 591.83 939.29 588.81
  Q 939.22 572.47 940.05 550.77
  Q 940.69 534.07 940.14 510.17
  A 0.77 0.77 0.0 0 1 940.91 509.38
  L 963.19 509.38
  A 0.58 0.57 90.0 0 1 963.76 509.96
  L 963.76 527.49
  A 0.91 0.91 0.0 0 0 964.67 528.40
  L 984.72 528.40
  A 0.94 0.94 0.0 0 1 985.66 529.34
  L 985.66 548.55
  A 0.85 0.84 -0.0 0 0 986.51 549.39
  L 1003.32 549.39
  A 0.69 0.68 -90.0 0 1 1004.00 550.08
  L 1004.00 572.25
  A 0.83 0.83 0.0 0 0 1004.83 573.08
  L 1014.94 573.08
  A 0.35 0.34 -0.0 0 0 1015.29 572.74
  L 1015.29 550.11
  A 0.67 0.67 0.0 0 1 1015.96 549.44
  L 1033.49 549.52
  A 0.48 0.48 0.0 0 0 1033.97 549.04
  L 1033.97 529.22
  A 0.86 0.86 0.0 0 1 1034.83 528.36
  L 1056.78 528.36
  A 0.83 0.83 0.0 0 0 1057.61 527.53
  L 1057.61 510.01
  A 0.65 0.64 -90.0 0 1 1058.25 509.36
  L 1079.31 509.36
  A 0.62 0.62 0.0 0 1 1079.93 509.98
  L 1079.93 657.09
  A 0.59 0.59 0.0 0 1 1079.34 657.68
  L 1057.72 657.68
  A 0.15 0.15 0.0 0 1 1057.57 657.53
  L 1057.57 554.91
  A 0.48 0.48 0.0 0 0 1057.09 554.43
  L 1039.10 554.43
  A 0.29 0.29 0.0 0 0 1038.81 554.72
  Q 1038.99 568.20 1037.37 583.00
  A 0.55 0.54 -87.1 0 1 1036.83 583.49
  L 1019.27 583.49
  A 0.91 0.90 -89.7 0 0 1018.37 584.39
  L 1018.29 601.30
  A 0.63 0.62 -90.0 0 1 1017.67 601.93
  L 997.82 601.93
  A 0.45 0.44 -90.0 0 1 997.38 601.48
  L 997.38 584.51
  A 0.57 0.57 0.0 0 0 996.81 583.94
  L 980.42 583.94
  A 0.54 0.53 89.4 0 1 979.89 583.41
  Q 979.84 578.68 980.13 576.27
  Q 980.65 572.09 980.54 569.19
  Q 980.36 564.31 980.18 560.46
  A 0.65 0.65 0.0 0 0 979.53 559.84
  L 961.55 559.76
  A 0.35 0.35 0.0 0 0 961.19 560.11
  L 961.19 656.95
  A 0.69 0.69 0.0 0 1 960.50 657.64
  Z"
/>
<path fill="#16cbbc" d="
  M 503.09 557.66
  L 522.03 557.66
  A 0.66 0.66 0.0 0 0 522.69 557.00
  L 522.69 538.03
  A 0.66 0.66 0.0 0 1 523.35 537.37
  L 541.82 537.37
  A 0.66 0.66 0.0 0 1 542.48 538.03
  L 542.48 557.15
  A 0.66 0.66 0.0 0 1 541.82 557.81
  L 523.50 557.81
  A 0.66 0.66 0.0 0 0 522.84 558.47
  L 522.84 577.80
  A 0.66 0.66 0.0 0 1 522.18 578.46
  L 503.71 578.46
  A 0.66 0.66 0.0 0 0 503.05 579.12
  L 503.05 598.14
  A 0.66 0.66 0.0 0 1 502.39 598.80
  L 439.59 598.80
  A 0.66 0.66 0.0 0 1 438.93 598.14
  L 438.93 579.00
  A 0.66 0.66 0.0 0 0 438.27 578.34
  L 419.34 578.34
  A 0.66 0.66 0.0 0 1 418.68 577.68
  L 418.68 558.52
  A 0.66 0.66 0.0 0 0 418.02 557.86
  L 399.26 557.86
  A 0.66 0.66 0.0 0 1 398.60 557.20
  L 398.60 538.04
  A 0.66 0.66 0.0 0 1 399.26 537.38
  L 418.00 537.38
  A 0.66 0.66 0.0 0 1 418.66 538.04
  L 418.66 557.11
  A 0.66 0.66 0.0 0 0 419.32 557.77
  L 438.40 557.77
  A 0.66 0.66 0.0 0 1 439.06 558.43
  L 439.06 577.52
  A 0.66 0.66 0.0 0 0 439.72 578.18
  L 501.77 578.18
  A 0.66 0.66 0.0 0 0 502.43 577.52
  L 502.43 558.32
  A 0.66 0.66 0.0 0 1 503.09 557.66
  Z"
/>
<path fill="#16cbbc" d="
  M 1258.94 658.05
  L 1238.83 658.05
  A 0.87 0.87 0.0 0 1 1237.96 657.18
  L 1237.96 551.87
  A 0.78 0.78 0.0 0 1 1238.72 551.09
  Q 1246.25 550.88 1251.59 551.34
  C 1257.58 551.87 1262.07 551.49 1268.50 552.08
  C 1274.37 552.62 1280.92 552.01 1286.17 551.97
  Q 1302.81 551.83 1319.01 552.07
  A 0.64 0.64 0.0 0 1 1319.64 552.71
  L 1319.64 568.77
  A 0.79 0.78 -90.0 0 0 1320.42 569.56
  L 1335.16 569.56
  A 0.61 0.60 -0.0 0 1 1335.77 570.16
  L 1335.77 657.08
  A 0.56 0.55 0.0 0 1 1335.21 657.63
  L 1314.03 657.63
  A 0.43 0.43 0.0 0 1 1313.60 657.20
  L 1313.98 573.90
  A 0.19 0.19 0.0 0 0 1313.81 573.71
  C 1311.69 573.40 1309.84 573.00 1307.35 573.02
  Q 1285.25 573.17 1260.03 573.41
  A 0.37 0.37 0.0 0 0 1259.67 573.78
  L 1259.67 657.32
  A 0.73 0.73 0.0 0 1 1258.94 658.05
  Z"
/>
<path fill="#16cbbc" d="
  M 1465.32 570.20
  L 1465.32 657.03
  A 0.62 0.62 0.0 0 1 1464.70 657.65
  L 1379.92 657.26
  A 0.36 0.36 0.0 0 1 1379.56 656.90
  L 1379.56 640.06
  A 0.76 0.75 -4.0 0 0 1378.70 639.32
  Q 1375.23 639.83 1372.52 638.91
  A 1.30 1.29 -35.9 0 0 1372.13 638.85
  L 1362.83 638.85
  A 0.66 0.65 90.0 0 1 1362.18 638.19
  L 1362.29 613.29
  A 0.49 0.49 0.0 0 1 1362.78 612.81
  L 1378.85 612.81
  A 0.78 0.77 3.8 0 0 1379.62 612.14
  C 1379.96 609.64 1380.42 607.51 1380.34 604.94
  Q 1380.25 602.42 1380.14 594.61
  A 0.72 0.72 0.0 0 1 1380.86 593.88
  L 1442.86 593.88
  A 0.64 0.64 0.0 0 0 1443.50 593.24
  L 1443.50 574.16
  A 0.74 0.73 90.0 0 0 1442.77 573.42
  L 1384.47 573.42
  A 0.56 0.55 -0.0 0 1 1383.91 572.87
  L 1384.01 552.11
  A 0.62 0.62 0.0 0 1 1384.64 551.49
  L 1447.81 551.77
  A 1.10 1.10 0.0 0 1 1448.90 552.87
  L 1448.82 568.99
  A 0.56 0.56 0.0 0 0 1449.38 569.55
  L 1464.67 569.55
  A 0.65 0.65 0.0 0 1 1465.32 570.20
  Z
  M 1443.5266 616.1916
  A 0.58 0.58 0.0 0 0 1442.9476 615.6105
  L 1385.0477 615.5095
  A 0.58 0.58 0.0 0 0 1384.4667 616.0885
  L 1384.4334 635.1884
  A 0.58 0.58 0.0 0 0 1385.0124 635.7695
  L 1442.9123 635.8705
  A 0.58 0.58 0.0 0 0 1443.4933 635.2915
  L 1443.5266 616.1916
  Z"
/>
<path fill="#16cbbc" d="
  M 1124.65 656.79
  L 1124.65 640.32
  A 0.65 0.65 0.0 0 0 1124.03 639.67
  C 1121.75 639.57 1119.07 640.00 1116.95 639.05
  A 1.40 1.25 -29.7 0 0 1116.39 638.93
  L 1108.34 638.93
  A 0.48 0.47 -0.0 0 1 1107.86 638.46
  L 1107.86 613.48
  A 0.58 0.57 0.0 0 1 1108.44 612.91
  L 1124.62 612.91
  A 0.59 0.58 86.5 0 0 1125.20 612.25
  Q 1124.82 609.01 1125.70 606.55
  A 2.72 2.48 57.3 0 0 1125.85 605.67
  L 1125.85 594.84
  A 0.89 0.89 0.0 0 1 1126.74 593.95
  L 1186.22 593.95
  A 0.58 0.57 0.0 0 0 1186.80 593.38
  L 1186.80 574.32
  A 0.94 0.94 0.0 0 0 1185.86 573.38
  L 1128.97 573.38
  A 0.75 0.75 0.0 0 1 1128.22 572.63
  L 1128.22 552.55
  A 0.70 0.70 0.0 0 1 1128.92 551.85
  L 1191.66 551.85
  A 0.66 0.65 0.0 0 1 1192.32 552.50
  L 1192.32 569.28
  A 0.56 0.56 0.0 0 0 1192.88 569.84
  L 1208.17 569.84
  A 0.36 0.36 0.0 0 1 1208.53 570.20
  Q 1208.89 599.49 1208.10 629.57
  C 1207.95 635.11 1207.33 639.23 1207.58 644.25
  Q 1207.82 649.09 1207.66 656.91
  A 0.57 0.57 0.0 0 1 1207.09 657.47
  L 1125.34 657.47
  A 0.69 0.68 -0.0 0 1 1124.65 656.79
  Z
  M 1186.4069 616.0798
  A 0.40 0.40 0.0 0 0 1186.0076 615.6791
  L 1129.7877 615.5810
  A 0.40 0.40 0.0 0 0 1129.3870 615.9803
  L 1129.3531 635.3802
  A 0.40 0.40 0.0 0 0 1129.7524 635.7809
  L 1185.9723 635.8790
  A 0.40 0.40 0.0 0 0 1186.3730 635.4797
  L 1186.4069 616.0798
  Z"
/>
<path fill="#16cbbc" d="
  M 1514.59 698.52
  L 1514.59 679.02
  A 0.81 0.80 -90.0 0 1 1515.39 678.21
  L 1566.12 678.21
  A 0.38 0.37 90.0 0 0 1566.49 677.83
  L 1566.49 658.25
  A 0.49 0.49 0.0 0 0 1566.00 657.76
  L 1511.56 657.76
  A 0.45 0.44 90.0 0 1 1511.12 657.31
  L 1511.12 640.54
  A 0.58 0.58 0.0 0 0 1510.54 639.96
  L 1493.96 639.96
  A 0.51 0.50 90.0 0 1 1493.46 639.45
  L 1493.46 570.69
  A 0.59 0.58 90.0 0 1 1494.04 570.10
  L 1510.45 570.10
  A 0.79 0.78 0.0 0 0 1511.24 569.32
  L 1511.24 552.43
  A 0.62 0.62 0.0 0 1 1511.86 551.81
  L 1571.28 551.81
  A 0.61 0.61 0.0 0 1 1571.89 552.41
  L 1571.94 558.72
  A 4.85 4.26 -55.3 0 0 1572.04 559.58
  Q 1572.89 563.36 1572.11 568.49
  A 0.89 0.88 -85.8 0 0 1572.98 569.51
  L 1588.09 569.51
  A 0.49 0.49 0.0 0 1 1588.58 570.00
  L 1588.58 680.03
  A 0.83 0.83 0.0 0 1 1587.75 680.86
  L 1571.48 680.86
  A 0.60 0.60 0.0 0 0 1570.88 681.48
  L 1571.26 692.11
  A 1.20 1.15 58.8 0 1 1571.13 692.69
  Q 1570.23 694.28 1570.42 698.30
  A 0.80 0.80 0.0 0 1 1569.62 699.14
  L 1515.20 699.14
  A 0.62 0.61 -90.0 0 1 1514.59 698.52
  Z
  M 1566.4362 573.9656
  A 0.53 0.53 0.0 0 0 1565.9053 573.4365
  L 1515.9853 573.5236
  A 0.53 0.53 0.0 0 0 1515.4563 574.0545
  L 1515.5638 635.6744
  A 0.53 0.53 0.0 0 0 1516.0947 636.2035
  L 1566.0147 636.1164
  A 0.53 0.53 0.0 0 0 1566.5437 635.5855
  L 1566.4362 573.9656
  Z"
/>
<path fill="#16cbbc" d="
  M 1719.95 569.70
  A 0.47 0.47 0.0 0 1 1720.42 570.17
  L 1720.21 615.08
  A 0.75 0.75 0.0 0 1 1719.46 615.83
  L 1643.46 615.83
  A 0.36 0.36 0.0 0 0 1643.10 616.19
  L 1643.01 635.29
  A 0.86 0.85 90.0 0 0 1643.86 636.15
  L 1711.29 636.15
  A 0.64 0.63 -0.0 0 1 1711.93 636.78
  L 1711.93 657.12
  A 0.68 0.68 0.0 0 1 1711.25 657.80
  L 1638.08 657.80
  A 0.83 0.83 0.0 0 1 1637.25 656.94
  L 1637.68 640.26
  A 0.61 0.61 0.0 0 0 1637.07 639.63
  L 1622.59 639.63
  A 0.59 0.59 0.0 0 1 1622.00 639.04
  L 1622.00 570.81
  A 0.96 0.95 -90.0 0 1 1622.95 569.85
  L 1637.25 569.85
  A 0.55 0.54 -1.0 0 0 1637.80 569.29
  L 1637.63 561.75
  A 2.69 2.39 55.6 0 1 1637.71 561.11
  Q 1638.57 557.75 1638.29 552.69
  A 0.71 0.70 -1.9 0 1 1639.00 551.94
  L 1703.96 551.94
  A 0.67 0.67 0.0 0 1 1704.63 552.61
  L 1704.63 569.36
  A 0.34 0.34 0.0 0 0 1704.97 569.70
  L 1719.95 569.70
  Z
  M 1698.20 593.90
  A 0.90 0.89 -82.3 0 0 1699.06 593.24
  L 1699.80 590.45
  A 1.75 1.75 0.0 0 0 1699.87 589.96
  L 1699.81 574.15
  A 0.75 0.74 89.6 0 0 1699.07 573.41
  L 1643.74 573.41
  A 0.67 0.67 0.0 0 0 1643.07 574.14
  Q 1643.59 580.32 1642.73 585.82
  A 1.71 1.36 57.0 0 0 1642.70 586.13
  L 1642.72 593.03
  A 0.87 0.87 0.0 0 0 1643.59 593.90
  L 1698.20 593.90
  Z"
/>
<path fill="#16cbbc" d="
  M 1792.90 575.20
  L 1792.90 591.32
  A 0.76 0.76 0.0 0 1 1792.14 592.08
  L 1776.65 592.08
  A 0.59 0.59 0.0 0 0 1776.06 592.67
  L 1776.06 657.83
  A 0.44 0.43 0.0 0 1 1775.62 658.26
  L 1754.94 658.26
  A 0.40 0.39 0.0 0 1 1754.54 657.87
  C 1754.66 618.43 1754.84 596.58 1754.22 575.76
  Q 1754.19 574.76 1754.63 573.05
  A 3.75 3.62 -39.6 0 0 1754.74 572.08
  L 1754.56 552.38
  A 0.48 0.48 0.0 0 1 1755.04 551.90
  L 1775.85 551.90
  A 0.75 0.74 90.0 0 1 1776.59 552.65
  L 1776.59 569.73
  A 0.68 0.67 0.0 0 0 1777.27 570.40
  L 1789.33 570.40
  A 0.74 0.73 -84.2 0 0 1790.05 569.81
  Q 1790.95 565.47 1790.83 562.67
  A 4.81 4.77 -38.4 0 1 1791.02 561.08
  Q 1792.03 557.71 1791.60 552.71
  A 0.77 0.77 0.0 0 1 1792.38 551.87
  L 1827.83 552.03
  A 0.81 0.80 90.0 0 1 1828.63 552.84
  L 1828.63 573.01
  A 1.12 1.12 0.0 0 1 1827.66 574.12
  Q 1823.78 574.64 1822.52 574.64
  Q 1812.19 574.62 1793.55 574.55
  A 0.65 0.64 -89.6 0 0 1792.90 575.20
  Z"
/>
</svg>
